<?xml version="1.0" encoding="UTF-8" ?>
<svg version="1.1" width="45" height="45" xmlns="http://www.w3.org/2000/svg" shape-rendering="crispEdges">
<rect x="3" y="2" width="1" height="1" fill="#000000" />
<rect x="4" y="2" width="1" height="1" fill="#000000" />
<rect x="5" y="2" width="1" height="1" fill="#000000" />
<rect x="6" y="2" width="1" height="1" fill="#000000" />
<rect x="7" y="2" width="1" height="1" fill="#000000" />
<rect x="8" y="2" width="1" height="1" fill="#000000" />
<rect x="9" y="2" width="1" height="1" fill="#000000" />
<rect x="10" y="2" width="1" height="1" fill="#000000" />
<rect x="34" y="2" width="1" height="1" fill="#000000" />
<rect x="35" y="2" width="1" height="1" fill="#000000" />
<rect x="36" y="2" width="1" height="1" fill="#000000" />
<rect x="37" y="2" width="1" height="1" fill="#000000" />
<rect x="38" y="2" width="1" height="1" fill="#000000" />
<rect x="39" y="2" width="1" height="1" fill="#000000" />
<rect x="40" y="2" width="1" height="1" fill="#000000" />
<rect x="41" y="2" width="1" height="1" fill="#000000" />
<rect x="3" y="3" width="1" height="1" fill="#000000" />
<rect x="4" y="3" width="1" height="1" fill="#000000" />
<rect x="5" y="3" width="1" height="1" fill="#000000" />
<rect x="6" y="3" width="1" height="1" fill="#000000" />
<rect x="7" y="3" width="1" height="1" fill="#000000" />
<rect x="8" y="3" width="1" height="1" fill="#000000" />
<rect x="9" y="3" width="1" height="1" fill="#000000" />
<rect x="10" y="3" width="1" height="1" fill="#000000" />
<rect x="34" y="3" width="1" height="1" fill="#000000" />
<rect x="35" y="3" width="1" height="1" fill="#000000" />
<rect x="36" y="3" width="1" height="1" fill="#000000" />
<rect x="37" y="3" width="1" height="1" fill="#000000" />
<rect x="38" y="3" width="1" height="1" fill="#000000" />
<rect x="39" y="3" width="1" height="1" fill="#000000" />
<rect x="40" y="3" width="1" height="1" fill="#000000" />
<rect x="41" y="3" width="1" height="1" fill="#000000" />
<rect x="3" y="4" width="1" height="1" fill="#000000" />
<rect x="4" y="4" width="1" height="1" fill="#000000" />
<rect x="5" y="4" width="1" height="1" fill="#000000" />
<rect x="6" y="4" width="1" height="1" fill="#000000" />
<rect x="7" y="4" width="1" height="1" fill="#000000" />
<rect x="8" y="4" width="1" height="1" fill="#000000" />
<rect x="9" y="4" width="1" height="1" fill="#000000" />
<rect x="10" y="4" width="1" height="1" fill="#000000" />
<rect x="34" y="4" width="1" height="1" fill="#000000" />
<rect x="35" y="4" width="1" height="1" fill="#000000" />
<rect x="36" y="4" width="1" height="1" fill="#000000" />
<rect x="37" y="4" width="1" height="1" fill="#000000" />
<rect x="38" y="4" width="1" height="1" fill="#000000" />
<rect x="39" y="4" width="1" height="1" fill="#000000" />
<rect x="40" y="4" width="1" height="1" fill="#000000" />
<rect x="41" y="4" width="1" height="1" fill="#000000" />
<rect x="3" y="5" width="1" height="1" fill="#000000" />
<rect x="4" y="5" width="1" height="1" fill="#000000" />
<rect x="5" y="5" width="1" height="1" fill="#000000" />
<rect x="6" y="5" width="1" height="1" fill="#000000" />
<rect x="7" y="5" width="1" height="1" fill="#000000" />
<rect x="8" y="5" width="1" height="1" fill="#000000" />
<rect x="9" y="5" width="1" height="1" fill="#000000" />
<rect x="10" y="5" width="1" height="1" fill="#000000" />
<rect x="34" y="5" width="1" height="1" fill="#000000" />
<rect x="35" y="5" width="1" height="1" fill="#000000" />
<rect x="36" y="5" width="1" height="1" fill="#000000" />
<rect x="37" y="5" width="1" height="1" fill="#000000" />
<rect x="38" y="5" width="1" height="1" fill="#000000" />
<rect x="39" y="5" width="1" height="1" fill="#000000" />
<rect x="40" y="5" width="1" height="1" fill="#000000" />
<rect x="41" y="5" width="1" height="1" fill="#000000" />
<rect x="3" y="6" width="1" height="1" fill="#000000" />
<rect x="4" y="6" width="1" height="1" fill="#000000" />
<rect x="5" y="6" width="1" height="1" fill="#000000" />
<rect x="6" y="6" width="1" height="1" fill="#000000" />
<rect x="7" y="6" width="1" height="1" fill="#000000" />
<rect x="8" y="6" width="1" height="1" fill="#000000" />
<rect x="9" y="6" width="1" height="1" fill="#000000" />
<rect x="10" y="6" width="1" height="1" fill="#000000" />
<rect x="34" y="6" width="1" height="1" fill="#000000" />
<rect x="35" y="6" width="1" height="1" fill="#000000" />
<rect x="36" y="6" width="1" height="1" fill="#000000" />
<rect x="37" y="6" width="1" height="1" fill="#000000" />
<rect x="38" y="6" width="1" height="1" fill="#000000" />
<rect x="39" y="6" width="1" height="1" fill="#000000" />
<rect x="40" y="6" width="1" height="1" fill="#000000" />
<rect x="41" y="6" width="1" height="1" fill="#000000" />
<rect x="3" y="7" width="1" height="1" fill="#000000" />
<rect x="4" y="7" width="1" height="1" fill="#000000" />
<rect x="5" y="7" width="1" height="1" fill="#000000" />
<rect x="6" y="7" width="1" height="1" fill="#000000" />
<rect x="7" y="7" width="1" height="1" fill="#000000" />
<rect x="8" y="7" width="1" height="1" fill="#000000" />
<rect x="9" y="7" width="1" height="1" fill="#000000" />
<rect x="10" y="7" width="1" height="1" fill="#000000" />
<rect x="34" y="7" width="1" height="1" fill="#000000" />
<rect x="35" y="7" width="1" height="1" fill="#000000" />
<rect x="36" y="7" width="1" height="1" fill="#000000" />
<rect x="37" y="7" width="1" height="1" fill="#000000" />
<rect x="38" y="7" width="1" height="1" fill="#000000" />
<rect x="39" y="7" width="1" height="1" fill="#000000" />
<rect x="40" y="7" width="1" height="1" fill="#000000" />
<rect x="41" y="7" width="1" height="1" fill="#000000" />
<rect x="3" y="8" width="1" height="1" fill="#000000" />
<rect x="4" y="8" width="1" height="1" fill="#000000" />
<rect x="5" y="8" width="1" height="1" fill="#000000" />
<rect x="6" y="8" width="1" height="1" fill="#000000" />
<rect x="7" y="8" width="1" height="1" fill="#000000" />
<rect x="8" y="8" width="1" height="1" fill="#000000" />
<rect x="9" y="8" width="1" height="1" fill="#000000" />
<rect x="10" y="8" width="1" height="1" fill="#000000" />
<rect x="34" y="8" width="1" height="1" fill="#000000" />
<rect x="35" y="8" width="1" height="1" fill="#000000" />
<rect x="36" y="8" width="1" height="1" fill="#000000" />
<rect x="37" y="8" width="1" height="1" fill="#000000" />
<rect x="38" y="8" width="1" height="1" fill="#000000" />
<rect x="39" y="8" width="1" height="1" fill="#000000" />
<rect x="40" y="8" width="1" height="1" fill="#000000" />
<rect x="41" y="8" width="1" height="1" fill="#000000" />
<rect x="3" y="9" width="1" height="1" fill="#000000" />
<rect x="4" y="9" width="1" height="1" fill="#000000" />
<rect x="5" y="9" width="1" height="1" fill="#000000" />
<rect x="6" y="9" width="1" height="1" fill="#000000" />
<rect x="7" y="9" width="1" height="1" fill="#000000" />
<rect x="8" y="9" width="1" height="1" fill="#000000" />
<rect x="9" y="9" width="1" height="1" fill="#000000" />
<rect x="10" y="9" width="1" height="1" fill="#000000" />
<rect x="34" y="9" width="1" height="1" fill="#000000" />
<rect x="35" y="9" width="1" height="1" fill="#000000" />
<rect x="36" y="9" width="1" height="1" fill="#000000" />
<rect x="37" y="9" width="1" height="1" fill="#000000" />
<rect x="38" y="9" width="1" height="1" fill="#000000" />
<rect x="39" y="9" width="1" height="1" fill="#000000" />
<rect x="40" y="9" width="1" height="1" fill="#000000" />
<rect x="41" y="9" width="1" height="1" fill="#000000" />
<rect x="11" y="10" width="1" height="1" fill="#000000" />
<rect x="12" y="10" width="1" height="1" fill="#000000" />
<rect x="13" y="10" width="1" height="1" fill="#000000" />
<rect x="14" y="10" width="1" height="1" fill="#000000" />
<rect x="15" y="10" width="1" height="1" fill="#000000" />
<rect x="16" y="10" width="1" height="1" fill="#000000" />
<rect x="17" y="10" width="1" height="1" fill="#000000" />
<rect x="18" y="10" width="1" height="1" fill="#000000" />
<rect x="26" y="10" width="1" height="1" fill="#000000" />
<rect x="27" y="10" width="1" height="1" fill="#000000" />
<rect x="28" y="10" width="1" height="1" fill="#000000" />
<rect x="29" y="10" width="1" height="1" fill="#000000" />
<rect x="30" y="10" width="1" height="1" fill="#000000" />
<rect x="31" y="10" width="1" height="1" fill="#000000" />
<rect x="32" y="10" width="1" height="1" fill="#000000" />
<rect x="33" y="10" width="1" height="1" fill="#000000" />
<rect x="11" y="11" width="1" height="1" fill="#000000" />
<rect x="12" y="11" width="1" height="1" fill="#000000" />
<rect x="13" y="11" width="1" height="1" fill="#000000" />
<rect x="14" y="11" width="1" height="1" fill="#000000" />
<rect x="15" y="11" width="1" height="1" fill="#000000" />
<rect x="16" y="11" width="1" height="1" fill="#000000" />
<rect x="17" y="11" width="1" height="1" fill="#000000" />
<rect x="18" y="11" width="1" height="1" fill="#000000" />
<rect x="26" y="11" width="1" height="1" fill="#000000" />
<rect x="27" y="11" width="1" height="1" fill="#000000" />
<rect x="28" y="11" width="1" height="1" fill="#000000" />
<rect x="29" y="11" width="1" height="1" fill="#000000" />
<rect x="30" y="11" width="1" height="1" fill="#000000" />
<rect x="31" y="11" width="1" height="1" fill="#000000" />
<rect x="32" y="11" width="1" height="1" fill="#000000" />
<rect x="33" y="11" width="1" height="1" fill="#000000" />
<rect x="11" y="12" width="1" height="1" fill="#000000" />
<rect x="12" y="12" width="1" height="1" fill="#000000" />
<rect x="13" y="12" width="1" height="1" fill="#000000" />
<rect x="14" y="12" width="1" height="1" fill="#000000" />
<rect x="15" y="12" width="1" height="1" fill="#000000" />
<rect x="16" y="12" width="1" height="1" fill="#000000" />
<rect x="17" y="12" width="1" height="1" fill="#000000" />
<rect x="18" y="12" width="1" height="1" fill="#000000" />
<rect x="26" y="12" width="1" height="1" fill="#000000" />
<rect x="27" y="12" width="1" height="1" fill="#000000" />
<rect x="28" y="12" width="1" height="1" fill="#000000" />
<rect x="29" y="12" width="1" height="1" fill="#000000" />
<rect x="30" y="12" width="1" height="1" fill="#000000" />
<rect x="31" y="12" width="1" height="1" fill="#000000" />
<rect x="32" y="12" width="1" height="1" fill="#000000" />
<rect x="33" y="12" width="1" height="1" fill="#000000" />
<rect x="11" y="13" width="1" height="1" fill="#000000" />
<rect x="12" y="13" width="1" height="1" fill="#000000" />
<rect x="13" y="13" width="1" height="1" fill="#000000" />
<rect x="14" y="13" width="1" height="1" fill="#000000" />
<rect x="15" y="13" width="1" height="1" fill="#000000" />
<rect x="16" y="13" width="1" height="1" fill="#000000" />
<rect x="17" y="13" width="1" height="1" fill="#000000" />
<rect x="18" y="13" width="1" height="1" fill="#000000" />
<rect x="26" y="13" width="1" height="1" fill="#000000" />
<rect x="27" y="13" width="1" height="1" fill="#000000" />
<rect x="28" y="13" width="1" height="1" fill="#000000" />
<rect x="29" y="13" width="1" height="1" fill="#000000" />
<rect x="30" y="13" width="1" height="1" fill="#000000" />
<rect x="31" y="13" width="1" height="1" fill="#000000" />
<rect x="32" y="13" width="1" height="1" fill="#000000" />
<rect x="33" y="13" width="1" height="1" fill="#000000" />
<rect x="11" y="14" width="1" height="1" fill="#000000" />
<rect x="12" y="14" width="1" height="1" fill="#000000" />
<rect x="13" y="14" width="1" height="1" fill="#000000" />
<rect x="14" y="14" width="1" height="1" fill="#000000" />
<rect x="15" y="14" width="1" height="1" fill="#000000" />
<rect x="16" y="14" width="1" height="1" fill="#000000" />
<rect x="17" y="14" width="1" height="1" fill="#000000" />
<rect x="18" y="14" width="1" height="1" fill="#000000" />
<rect x="26" y="14" width="1" height="1" fill="#000000" />
<rect x="27" y="14" width="1" height="1" fill="#000000" />
<rect x="28" y="14" width="1" height="1" fill="#000000" />
<rect x="29" y="14" width="1" height="1" fill="#000000" />
<rect x="30" y="14" width="1" height="1" fill="#000000" />
<rect x="31" y="14" width="1" height="1" fill="#000000" />
<rect x="32" y="14" width="1" height="1" fill="#000000" />
<rect x="33" y="14" width="1" height="1" fill="#000000" />
<rect x="11" y="15" width="1" height="1" fill="#000000" />
<rect x="12" y="15" width="1" height="1" fill="#000000" />
<rect x="13" y="15" width="1" height="1" fill="#000000" />
<rect x="14" y="15" width="1" height="1" fill="#000000" />
<rect x="15" y="15" width="1" height="1" fill="#000000" />
<rect x="16" y="15" width="1" height="1" fill="#000000" />
<rect x="17" y="15" width="1" height="1" fill="#000000" />
<rect x="18" y="15" width="1" height="1" fill="#000000" />
<rect x="26" y="15" width="1" height="1" fill="#000000" />
<rect x="27" y="15" width="1" height="1" fill="#000000" />
<rect x="28" y="15" width="1" height="1" fill="#000000" />
<rect x="29" y="15" width="1" height="1" fill="#000000" />
<rect x="30" y="15" width="1" height="1" fill="#000000" />
<rect x="31" y="15" width="1" height="1" fill="#000000" />
<rect x="32" y="15" width="1" height="1" fill="#000000" />
<rect x="33" y="15" width="1" height="1" fill="#000000" />
<rect x="11" y="16" width="1" height="1" fill="#000000" />
<rect x="12" y="16" width="1" height="1" fill="#000000" />
<rect x="13" y="16" width="1" height="1" fill="#000000" />
<rect x="14" y="16" width="1" height="1" fill="#000000" />
<rect x="15" y="16" width="1" height="1" fill="#000000" />
<rect x="16" y="16" width="1" height="1" fill="#000000" />
<rect x="17" y="16" width="1" height="1" fill="#000000" />
<rect x="18" y="16" width="1" height="1" fill="#000000" />
<rect x="26" y="16" width="1" height="1" fill="#000000" />
<rect x="27" y="16" width="1" height="1" fill="#000000" />
<rect x="28" y="16" width="1" height="1" fill="#000000" />
<rect x="29" y="16" width="1" height="1" fill="#000000" />
<rect x="30" y="16" width="1" height="1" fill="#000000" />
<rect x="31" y="16" width="1" height="1" fill="#000000" />
<rect x="32" y="16" width="1" height="1" fill="#000000" />
<rect x="33" y="16" width="1" height="1" fill="#000000" />
<rect x="11" y="17" width="1" height="1" fill="#000000" />
<rect x="12" y="17" width="1" height="1" fill="#000000" />
<rect x="13" y="17" width="1" height="1" fill="#000000" />
<rect x="14" y="17" width="1" height="1" fill="#000000" />
<rect x="15" y="17" width="1" height="1" fill="#000000" />
<rect x="16" y="17" width="1" height="1" fill="#000000" />
<rect x="17" y="17" width="1" height="1" fill="#000000" />
<rect x="18" y="17" width="1" height="1" fill="#000000" />
<rect x="26" y="17" width="1" height="1" fill="#000000" />
<rect x="27" y="17" width="1" height="1" fill="#000000" />
<rect x="28" y="17" width="1" height="1" fill="#000000" />
<rect x="29" y="17" width="1" height="1" fill="#000000" />
<rect x="30" y="17" width="1" height="1" fill="#000000" />
<rect x="31" y="17" width="1" height="1" fill="#000000" />
<rect x="32" y="17" width="1" height="1" fill="#000000" />
<rect x="33" y="17" width="1" height="1" fill="#000000" />
<rect x="19" y="18" width="1" height="1" fill="#000000" />
<rect x="20" y="18" width="1" height="1" fill="#000000" />
<rect x="21" y="18" width="1" height="1" fill="#000000" />
<rect x="22" y="18" width="1" height="1" fill="#000000" />
<rect x="23" y="18" width="1" height="1" fill="#000000" />
<rect x="24" y="18" width="1" height="1" fill="#000000" />
<rect x="25" y="18" width="1" height="1" fill="#000000" />
<rect x="19" y="19" width="1" height="1" fill="#000000" />
<rect x="20" y="19" width="1" height="1" fill="#000000" />
<rect x="21" y="19" width="1" height="1" fill="#000000" />
<rect x="22" y="19" width="1" height="1" fill="#000000" />
<rect x="23" y="19" width="1" height="1" fill="#000000" />
<rect x="24" y="19" width="1" height="1" fill="#000000" />
<rect x="25" y="19" width="1" height="1" fill="#000000" />
<rect x="19" y="20" width="1" height="1" fill="#000000" />
<rect x="20" y="20" width="1" height="1" fill="#000000" />
<rect x="21" y="20" width="1" height="1" fill="#000000" />
<rect x="22" y="20" width="1" height="1" fill="#000000" />
<rect x="23" y="20" width="1" height="1" fill="#000000" />
<rect x="24" y="20" width="1" height="1" fill="#000000" />
<rect x="25" y="20" width="1" height="1" fill="#000000" />
<rect x="19" y="21" width="1" height="1" fill="#000000" />
<rect x="20" y="21" width="1" height="1" fill="#000000" />
<rect x="21" y="21" width="1" height="1" fill="#000000" />
<rect x="22" y="21" width="1" height="1" fill="#000000" />
<rect x="23" y="21" width="1" height="1" fill="#000000" />
<rect x="24" y="21" width="1" height="1" fill="#000000" />
<rect x="25" y="21" width="1" height="1" fill="#000000" />
<rect x="19" y="22" width="1" height="1" fill="#000000" />
<rect x="20" y="22" width="1" height="1" fill="#000000" />
<rect x="21" y="22" width="1" height="1" fill="#000000" />
<rect x="22" y="22" width="1" height="1" fill="#000000" />
<rect x="23" y="22" width="1" height="1" fill="#000000" />
<rect x="24" y="22" width="1" height="1" fill="#000000" />
<rect x="25" y="22" width="1" height="1" fill="#000000" />
<rect x="19" y="23" width="1" height="1" fill="#000000" />
<rect x="20" y="23" width="1" height="1" fill="#000000" />
<rect x="21" y="23" width="1" height="1" fill="#000000" />
<rect x="22" y="23" width="1" height="1" fill="#000000" />
<rect x="23" y="23" width="1" height="1" fill="#000000" />
<rect x="24" y="23" width="1" height="1" fill="#000000" />
<rect x="25" y="23" width="1" height="1" fill="#000000" />
<rect x="19" y="24" width="1" height="1" fill="#000000" />
<rect x="20" y="24" width="1" height="1" fill="#000000" />
<rect x="21" y="24" width="1" height="1" fill="#000000" />
<rect x="22" y="24" width="1" height="1" fill="#000000" />
<rect x="23" y="24" width="1" height="1" fill="#000000" />
<rect x="24" y="24" width="1" height="1" fill="#000000" />
<rect x="25" y="24" width="1" height="1" fill="#000000" />
<rect x="19" y="25" width="1" height="1" fill="#000000" />
<rect x="20" y="25" width="1" height="1" fill="#000000" />
<rect x="21" y="25" width="1" height="1" fill="#000000" />
<rect x="22" y="25" width="1" height="1" fill="#000000" />
<rect x="23" y="25" width="1" height="1" fill="#000000" />
<rect x="24" y="25" width="1" height="1" fill="#000000" />
<rect x="25" y="25" width="1" height="1" fill="#000000" />
<rect x="11" y="26" width="1" height="1" fill="#000000" />
<rect x="12" y="26" width="1" height="1" fill="#000000" />
<rect x="13" y="26" width="1" height="1" fill="#000000" />
<rect x="14" y="26" width="1" height="1" fill="#000000" />
<rect x="15" y="26" width="1" height="1" fill="#000000" />
<rect x="16" y="26" width="1" height="1" fill="#000000" />
<rect x="17" y="26" width="1" height="1" fill="#000000" />
<rect x="18" y="26" width="1" height="1" fill="#000000" />
<rect x="26" y="26" width="1" height="1" fill="#000000" />
<rect x="27" y="26" width="1" height="1" fill="#000000" />
<rect x="28" y="26" width="1" height="1" fill="#000000" />
<rect x="29" y="26" width="1" height="1" fill="#000000" />
<rect x="30" y="26" width="1" height="1" fill="#000000" />
<rect x="31" y="26" width="1" height="1" fill="#000000" />
<rect x="32" y="26" width="1" height="1" fill="#000000" />
<rect x="33" y="26" width="1" height="1" fill="#000000" />
<rect x="11" y="27" width="1" height="1" fill="#000000" />
<rect x="12" y="27" width="1" height="1" fill="#000000" />
<rect x="13" y="27" width="1" height="1" fill="#000000" />
<rect x="14" y="27" width="1" height="1" fill="#000000" />
<rect x="15" y="27" width="1" height="1" fill="#000000" />
<rect x="16" y="27" width="1" height="1" fill="#000000" />
<rect x="17" y="27" width="1" height="1" fill="#000000" />
<rect x="18" y="27" width="1" height="1" fill="#000000" />
<rect x="26" y="27" width="1" height="1" fill="#000000" />
<rect x="27" y="27" width="1" height="1" fill="#000000" />
<rect x="28" y="27" width="1" height="1" fill="#000000" />
<rect x="29" y="27" width="1" height="1" fill="#000000" />
<rect x="30" y="27" width="1" height="1" fill="#000000" />
<rect x="31" y="27" width="1" height="1" fill="#000000" />
<rect x="32" y="27" width="1" height="1" fill="#000000" />
<rect x="33" y="27" width="1" height="1" fill="#000000" />
<rect x="11" y="28" width="1" height="1" fill="#000000" />
<rect x="12" y="28" width="1" height="1" fill="#000000" />
<rect x="13" y="28" width="1" height="1" fill="#000000" />
<rect x="14" y="28" width="1" height="1" fill="#000000" />
<rect x="15" y="28" width="1" height="1" fill="#000000" />
<rect x="16" y="28" width="1" height="1" fill="#000000" />
<rect x="17" y="28" width="1" height="1" fill="#000000" />
<rect x="18" y="28" width="1" height="1" fill="#000000" />
<rect x="26" y="28" width="1" height="1" fill="#000000" />
<rect x="27" y="28" width="1" height="1" fill="#000000" />
<rect x="28" y="28" width="1" height="1" fill="#000000" />
<rect x="29" y="28" width="1" height="1" fill="#000000" />
<rect x="30" y="28" width="1" height="1" fill="#000000" />
<rect x="31" y="28" width="1" height="1" fill="#000000" />
<rect x="32" y="28" width="1" height="1" fill="#000000" />
<rect x="33" y="28" width="1" height="1" fill="#000000" />
<rect x="11" y="29" width="1" height="1" fill="#000000" />
<rect x="12" y="29" width="1" height="1" fill="#000000" />
<rect x="13" y="29" width="1" height="1" fill="#000000" />
<rect x="14" y="29" width="1" height="1" fill="#000000" />
<rect x="15" y="29" width="1" height="1" fill="#000000" />
<rect x="16" y="29" width="1" height="1" fill="#000000" />
<rect x="17" y="29" width="1" height="1" fill="#000000" />
<rect x="18" y="29" width="1" height="1" fill="#000000" />
<rect x="26" y="29" width="1" height="1" fill="#000000" />
<rect x="27" y="29" width="1" height="1" fill="#000000" />
<rect x="28" y="29" width="1" height="1" fill="#000000" />
<rect x="29" y="29" width="1" height="1" fill="#000000" />
<rect x="30" y="29" width="1" height="1" fill="#000000" />
<rect x="31" y="29" width="1" height="1" fill="#000000" />
<rect x="32" y="29" width="1" height="1" fill="#000000" />
<rect x="33" y="29" width="1" height="1" fill="#000000" />
<rect x="11" y="30" width="1" height="1" fill="#000000" />
<rect x="12" y="30" width="1" height="1" fill="#000000" />
<rect x="13" y="30" width="1" height="1" fill="#000000" />
<rect x="14" y="30" width="1" height="1" fill="#000000" />
<rect x="15" y="30" width="1" height="1" fill="#000000" />
<rect x="16" y="30" width="1" height="1" fill="#000000" />
<rect x="17" y="30" width="1" height="1" fill="#000000" />
<rect x="18" y="30" width="1" height="1" fill="#000000" />
<rect x="26" y="30" width="1" height="1" fill="#000000" />
<rect x="27" y="30" width="1" height="1" fill="#000000" />
<rect x="28" y="30" width="1" height="1" fill="#000000" />
<rect x="29" y="30" width="1" height="1" fill="#000000" />
<rect x="30" y="30" width="1" height="1" fill="#000000" />
<rect x="31" y="30" width="1" height="1" fill="#000000" />
<rect x="32" y="30" width="1" height="1" fill="#000000" />
<rect x="33" y="30" width="1" height="1" fill="#000000" />
<rect x="11" y="31" width="1" height="1" fill="#000000" />
<rect x="12" y="31" width="1" height="1" fill="#000000" />
<rect x="13" y="31" width="1" height="1" fill="#000000" />
<rect x="14" y="31" width="1" height="1" fill="#000000" />
<rect x="15" y="31" width="1" height="1" fill="#000000" />
<rect x="16" y="31" width="1" height="1" fill="#000000" />
<rect x="17" y="31" width="1" height="1" fill="#000000" />
<rect x="18" y="31" width="1" height="1" fill="#000000" />
<rect x="26" y="31" width="1" height="1" fill="#000000" />
<rect x="27" y="31" width="1" height="1" fill="#000000" />
<rect x="28" y="31" width="1" height="1" fill="#000000" />
<rect x="29" y="31" width="1" height="1" fill="#000000" />
<rect x="30" y="31" width="1" height="1" fill="#000000" />
<rect x="31" y="31" width="1" height="1" fill="#000000" />
<rect x="32" y="31" width="1" height="1" fill="#000000" />
<rect x="33" y="31" width="1" height="1" fill="#000000" />
<rect x="11" y="32" width="1" height="1" fill="#000000" />
<rect x="12" y="32" width="1" height="1" fill="#000000" />
<rect x="13" y="32" width="1" height="1" fill="#000000" />
<rect x="14" y="32" width="1" height="1" fill="#000000" />
<rect x="15" y="32" width="1" height="1" fill="#000000" />
<rect x="16" y="32" width="1" height="1" fill="#000000" />
<rect x="17" y="32" width="1" height="1" fill="#000000" />
<rect x="18" y="32" width="1" height="1" fill="#000000" />
<rect x="26" y="32" width="1" height="1" fill="#000000" />
<rect x="27" y="32" width="1" height="1" fill="#000000" />
<rect x="28" y="32" width="1" height="1" fill="#000000" />
<rect x="29" y="32" width="1" height="1" fill="#000000" />
<rect x="30" y="32" width="1" height="1" fill="#000000" />
<rect x="31" y="32" width="1" height="1" fill="#000000" />
<rect x="32" y="32" width="1" height="1" fill="#000000" />
<rect x="33" y="32" width="1" height="1" fill="#000000" />
<rect x="11" y="33" width="1" height="1" fill="#000000" />
<rect x="12" y="33" width="1" height="1" fill="#000000" />
<rect x="13" y="33" width="1" height="1" fill="#000000" />
<rect x="14" y="33" width="1" height="1" fill="#000000" />
<rect x="15" y="33" width="1" height="1" fill="#000000" />
<rect x="16" y="33" width="1" height="1" fill="#000000" />
<rect x="17" y="33" width="1" height="1" fill="#000000" />
<rect x="18" y="33" width="1" height="1" fill="#000000" />
<rect x="26" y="33" width="1" height="1" fill="#000000" />
<rect x="27" y="33" width="1" height="1" fill="#000000" />
<rect x="28" y="33" width="1" height="1" fill="#000000" />
<rect x="29" y="33" width="1" height="1" fill="#000000" />
<rect x="30" y="33" width="1" height="1" fill="#000000" />
<rect x="31" y="33" width="1" height="1" fill="#000000" />
<rect x="32" y="33" width="1" height="1" fill="#000000" />
<rect x="33" y="33" width="1" height="1" fill="#000000" />
<rect x="3" y="34" width="1" height="1" fill="#000000" />
<rect x="4" y="34" width="1" height="1" fill="#000000" />
<rect x="5" y="34" width="1" height="1" fill="#000000" />
<rect x="6" y="34" width="1" height="1" fill="#000000" />
<rect x="7" y="34" width="1" height="1" fill="#000000" />
<rect x="8" y="34" width="1" height="1" fill="#000000" />
<rect x="9" y="34" width="1" height="1" fill="#000000" />
<rect x="10" y="34" width="1" height="1" fill="#000000" />
<rect x="34" y="34" width="1" height="1" fill="#000000" />
<rect x="35" y="34" width="1" height="1" fill="#000000" />
<rect x="36" y="34" width="1" height="1" fill="#000000" />
<rect x="37" y="34" width="1" height="1" fill="#000000" />
<rect x="38" y="34" width="1" height="1" fill="#000000" />
<rect x="39" y="34" width="1" height="1" fill="#000000" />
<rect x="40" y="34" width="1" height="1" fill="#000000" />
<rect x="41" y="34" width="1" height="1" fill="#000000" />
<rect x="3" y="35" width="1" height="1" fill="#000000" />
<rect x="4" y="35" width="1" height="1" fill="#000000" />
<rect x="5" y="35" width="1" height="1" fill="#000000" />
<rect x="6" y="35" width="1" height="1" fill="#000000" />
<rect x="7" y="35" width="1" height="1" fill="#000000" />
<rect x="8" y="35" width="1" height="1" fill="#000000" />
<rect x="9" y="35" width="1" height="1" fill="#000000" />
<rect x="10" y="35" width="1" height="1" fill="#000000" />
<rect x="34" y="35" width="1" height="1" fill="#000000" />
<rect x="35" y="35" width="1" height="1" fill="#000000" />
<rect x="36" y="35" width="1" height="1" fill="#000000" />
<rect x="37" y="35" width="1" height="1" fill="#000000" />
<rect x="38" y="35" width="1" height="1" fill="#000000" />
<rect x="39" y="35" width="1" height="1" fill="#000000" />
<rect x="40" y="35" width="1" height="1" fill="#000000" />
<rect x="41" y="35" width="1" height="1" fill="#000000" />
<rect x="3" y="36" width="1" height="1" fill="#000000" />
<rect x="4" y="36" width="1" height="1" fill="#000000" />
<rect x="5" y="36" width="1" height="1" fill="#000000" />
<rect x="6" y="36" width="1" height="1" fill="#000000" />
<rect x="7" y="36" width="1" height="1" fill="#000000" />
<rect x="8" y="36" width="1" height="1" fill="#000000" />
<rect x="9" y="36" width="1" height="1" fill="#000000" />
<rect x="10" y="36" width="1" height="1" fill="#000000" />
<rect x="34" y="36" width="1" height="1" fill="#000000" />
<rect x="35" y="36" width="1" height="1" fill="#000000" />
<rect x="36" y="36" width="1" height="1" fill="#000000" />
<rect x="37" y="36" width="1" height="1" fill="#000000" />
<rect x="38" y="36" width="1" height="1" fill="#000000" />
<rect x="39" y="36" width="1" height="1" fill="#000000" />
<rect x="40" y="36" width="1" height="1" fill="#000000" />
<rect x="41" y="36" width="1" height="1" fill="#000000" />
<rect x="3" y="37" width="1" height="1" fill="#000000" />
<rect x="4" y="37" width="1" height="1" fill="#000000" />
<rect x="5" y="37" width="1" height="1" fill="#000000" />
<rect x="6" y="37" width="1" height="1" fill="#000000" />
<rect x="7" y="37" width="1" height="1" fill="#000000" />
<rect x="8" y="37" width="1" height="1" fill="#000000" />
<rect x="9" y="37" width="1" height="1" fill="#000000" />
<rect x="10" y="37" width="1" height="1" fill="#000000" />
<rect x="34" y="37" width="1" height="1" fill="#000000" />
<rect x="35" y="37" width="1" height="1" fill="#000000" />
<rect x="36" y="37" width="1" height="1" fill="#000000" />
<rect x="37" y="37" width="1" height="1" fill="#000000" />
<rect x="38" y="37" width="1" height="1" fill="#000000" />
<rect x="39" y="37" width="1" height="1" fill="#000000" />
<rect x="40" y="37" width="1" height="1" fill="#000000" />
<rect x="41" y="37" width="1" height="1" fill="#000000" />
<rect x="3" y="38" width="1" height="1" fill="#000000" />
<rect x="4" y="38" width="1" height="1" fill="#000000" />
<rect x="5" y="38" width="1" height="1" fill="#000000" />
<rect x="6" y="38" width="1" height="1" fill="#000000" />
<rect x="7" y="38" width="1" height="1" fill="#000000" />
<rect x="8" y="38" width="1" height="1" fill="#000000" />
<rect x="9" y="38" width="1" height="1" fill="#000000" />
<rect x="10" y="38" width="1" height="1" fill="#000000" />
<rect x="34" y="38" width="1" height="1" fill="#000000" />
<rect x="35" y="38" width="1" height="1" fill="#000000" />
<rect x="36" y="38" width="1" height="1" fill="#000000" />
<rect x="37" y="38" width="1" height="1" fill="#000000" />
<rect x="38" y="38" width="1" height="1" fill="#000000" />
<rect x="39" y="38" width="1" height="1" fill="#000000" />
<rect x="40" y="38" width="1" height="1" fill="#000000" />
<rect x="41" y="38" width="1" height="1" fill="#000000" />
<rect x="3" y="39" width="1" height="1" fill="#000000" />
<rect x="4" y="39" width="1" height="1" fill="#000000" />
<rect x="5" y="39" width="1" height="1" fill="#000000" />
<rect x="6" y="39" width="1" height="1" fill="#000000" />
<rect x="7" y="39" width="1" height="1" fill="#000000" />
<rect x="8" y="39" width="1" height="1" fill="#000000" />
<rect x="9" y="39" width="1" height="1" fill="#000000" />
<rect x="10" y="39" width="1" height="1" fill="#000000" />
<rect x="34" y="39" width="1" height="1" fill="#000000" />
<rect x="35" y="39" width="1" height="1" fill="#000000" />
<rect x="36" y="39" width="1" height="1" fill="#000000" />
<rect x="37" y="39" width="1" height="1" fill="#000000" />
<rect x="38" y="39" width="1" height="1" fill="#000000" />
<rect x="39" y="39" width="1" height="1" fill="#000000" />
<rect x="40" y="39" width="1" height="1" fill="#000000" />
<rect x="41" y="39" width="1" height="1" fill="#000000" />
<rect x="3" y="40" width="1" height="1" fill="#000000" />
<rect x="4" y="40" width="1" height="1" fill="#000000" />
<rect x="5" y="40" width="1" height="1" fill="#000000" />
<rect x="6" y="40" width="1" height="1" fill="#000000" />
<rect x="7" y="40" width="1" height="1" fill="#000000" />
<rect x="8" y="40" width="1" height="1" fill="#000000" />
<rect x="9" y="40" width="1" height="1" fill="#000000" />
<rect x="10" y="40" width="1" height="1" fill="#000000" />
<rect x="34" y="40" width="1" height="1" fill="#000000" />
<rect x="35" y="40" width="1" height="1" fill="#000000" />
<rect x="36" y="40" width="1" height="1" fill="#000000" />
<rect x="37" y="40" width="1" height="1" fill="#000000" />
<rect x="38" y="40" width="1" height="1" fill="#000000" />
<rect x="39" y="40" width="1" height="1" fill="#000000" />
<rect x="40" y="40" width="1" height="1" fill="#000000" />
<rect x="41" y="40" width="1" height="1" fill="#000000" />
<rect x="3" y="41" width="1" height="1" fill="#000000" />
<rect x="4" y="41" width="1" height="1" fill="#000000" />
<rect x="5" y="41" width="1" height="1" fill="#000000" />
<rect x="6" y="41" width="1" height="1" fill="#000000" />
<rect x="7" y="41" width="1" height="1" fill="#000000" />
<rect x="8" y="41" width="1" height="1" fill="#000000" />
<rect x="9" y="41" width="1" height="1" fill="#000000" />
<rect x="10" y="41" width="1" height="1" fill="#000000" />
<rect x="34" y="41" width="1" height="1" fill="#000000" />
<rect x="35" y="41" width="1" height="1" fill="#000000" />
<rect x="36" y="41" width="1" height="1" fill="#000000" />
<rect x="37" y="41" width="1" height="1" fill="#000000" />
<rect x="38" y="41" width="1" height="1" fill="#000000" />
<rect x="39" y="41" width="1" height="1" fill="#000000" />
<rect x="40" y="41" width="1" height="1" fill="#000000" />
<rect x="41" y="41" width="1" height="1" fill="#000000" />
</svg>