<?xml version="1.0" encoding="UTF-8" ?>
<svg version="1.1" width="45" height="45" xmlns="http://www.w3.org/2000/svg" shape-rendering="crispEdges">
<rect x="4" y="32" width="1" height="1" fill="#000000" />
<rect x="5" y="32" width="1" height="1" fill="#000000" />
<rect x="6" y="32" width="1" height="1" fill="#000000" />
<rect x="7" y="32" width="1" height="1" fill="#000000" />
<rect x="8" y="32" width="1" height="1" fill="#000000" />
<rect x="9" y="32" width="1" height="1" fill="#000000" />
<rect x="10" y="32" width="1" height="1" fill="#000000" />
<rect x="11" y="32" width="1" height="1" fill="#000000" />
<rect x="12" y="32" width="1" height="1" fill="#000000" />
<rect x="13" y="32" width="1" height="1" fill="#000000" />
<rect x="14" y="32" width="1" height="1" fill="#000000" />
<rect x="15" y="32" width="1" height="1" fill="#000000" />
<rect x="16" y="32" width="1" height="1" fill="#000000" />
<rect x="17" y="32" width="1" height="1" fill="#000000" />
<rect x="18" y="32" width="1" height="1" fill="#000000" />
<rect x="19" y="32" width="1" height="1" fill="#000000" />
<rect x="20" y="32" width="1" height="1" fill="#000000" />
<rect x="21" y="32" width="1" height="1" fill="#000000" />
<rect x="22" y="32" width="1" height="1" fill="#000000" />
<rect x="23" y="32" width="1" height="1" fill="#000000" />
<rect x="24" y="32" width="1" height="1" fill="#000000" />
<rect x="25" y="32" width="1" height="1" fill="#000000" />
<rect x="26" y="32" width="1" height="1" fill="#000000" />
<rect x="27" y="32" width="1" height="1" fill="#000000" />
<rect x="28" y="32" width="1" height="1" fill="#000000" />
<rect x="29" y="32" width="1" height="1" fill="#000000" />
<rect x="30" y="32" width="1" height="1" fill="#000000" />
<rect x="31" y="32" width="1" height="1" fill="#000000" />
<rect x="32" y="32" width="1" height="1" fill="#000000" />
<rect x="33" y="32" width="1" height="1" fill="#000000" />
<rect x="34" y="32" width="1" height="1" fill="#000000" />
<rect x="35" y="32" width="1" height="1" fill="#000000" />
<rect x="36" y="32" width="1" height="1" fill="#000000" />
<rect x="37" y="32" width="1" height="1" fill="#000000" />
<rect x="38" y="32" width="1" height="1" fill="#000000" />
<rect x="39" y="32" width="1" height="1" fill="#000000" />
<rect x="40" y="32" width="1" height="1" fill="#000000" />
<rect x="4" y="33" width="1" height="1" fill="#000000" />
<rect x="5" y="33" width="1" height="1" fill="#000000" />
<rect x="6" y="33" width="1" height="1" fill="#000000" />
<rect x="7" y="33" width="1" height="1" fill="#000000" />
<rect x="8" y="33" width="1" height="1" fill="#000000" />
<rect x="9" y="33" width="1" height="1" fill="#000000" />
<rect x="10" y="33" width="1" height="1" fill="#000000" />
<rect x="11" y="33" width="1" height="1" fill="#000000" />
<rect x="12" y="33" width="1" height="1" fill="#000000" />
<rect x="13" y="33" width="1" height="1" fill="#000000" />
<rect x="14" y="33" width="1" height="1" fill="#000000" />
<rect x="15" y="33" width="1" height="1" fill="#000000" />
<rect x="16" y="33" width="1" height="1" fill="#000000" />
<rect x="17" y="33" width="1" height="1" fill="#000000" />
<rect x="18" y="33" width="1" height="1" fill="#000000" />
<rect x="19" y="33" width="1" height="1" fill="#000000" />
<rect x="20" y="33" width="1" height="1" fill="#000000" />
<rect x="21" y="33" width="1" height="1" fill="#000000" />
<rect x="22" y="33" width="1" height="1" fill="#000000" />
<rect x="23" y="33" width="1" height="1" fill="#000000" />
<rect x="24" y="33" width="1" height="1" fill="#000000" />
<rect x="25" y="33" width="1" height="1" fill="#000000" />
<rect x="26" y="33" width="1" height="1" fill="#000000" />
<rect x="27" y="33" width="1" height="1" fill="#000000" />
<rect x="28" y="33" width="1" height="1" fill="#000000" />
<rect x="29" y="33" width="1" height="1" fill="#000000" />
<rect x="30" y="33" width="1" height="1" fill="#000000" />
<rect x="31" y="33" width="1" height="1" fill="#000000" />
<rect x="32" y="33" width="1" height="1" fill="#000000" />
<rect x="33" y="33" width="1" height="1" fill="#000000" />
<rect x="34" y="33" width="1" height="1" fill="#000000" />
<rect x="35" y="33" width="1" height="1" fill="#000000" />
<rect x="36" y="33" width="1" height="1" fill="#000000" />
<rect x="37" y="33" width="1" height="1" fill="#000000" />
<rect x="38" y="33" width="1" height="1" fill="#000000" />
<rect x="39" y="33" width="1" height="1" fill="#000000" />
<rect x="40" y="33" width="1" height="1" fill="#000000" />
<rect x="4" y="34" width="1" height="1" fill="#000000" />
<rect x="5" y="34" width="1" height="1" fill="#000000" />
<rect x="6" y="34" width="1" height="1" fill="#000000" />
<rect x="7" y="34" width="1" height="1" fill="#000000" />
<rect x="8" y="34" width="1" height="1" fill="#000000" />
<rect x="9" y="34" width="1" height="1" fill="#000000" />
<rect x="10" y="34" width="1" height="1" fill="#000000" />
<rect x="11" y="34" width="1" height="1" fill="#000000" />
<rect x="12" y="34" width="1" height="1" fill="#000000" />
<rect x="13" y="34" width="1" height="1" fill="#000000" />
<rect x="14" y="34" width="1" height="1" fill="#000000" />
<rect x="15" y="34" width="1" height="1" fill="#000000" />
<rect x="16" y="34" width="1" height="1" fill="#000000" />
<rect x="17" y="34" width="1" height="1" fill="#000000" />
<rect x="18" y="34" width="1" height="1" fill="#000000" />
<rect x="19" y="34" width="1" height="1" fill="#000000" />
<rect x="20" y="34" width="1" height="1" fill="#000000" />
<rect x="21" y="34" width="1" height="1" fill="#000000" />
<rect x="22" y="34" width="1" height="1" fill="#000000" />
<rect x="23" y="34" width="1" height="1" fill="#000000" />
<rect x="24" y="34" width="1" height="1" fill="#000000" />
<rect x="25" y="34" width="1" height="1" fill="#000000" />
<rect x="26" y="34" width="1" height="1" fill="#000000" />
<rect x="27" y="34" width="1" height="1" fill="#000000" />
<rect x="28" y="34" width="1" height="1" fill="#000000" />
<rect x="29" y="34" width="1" height="1" fill="#000000" />
<rect x="30" y="34" width="1" height="1" fill="#000000" />
<rect x="31" y="34" width="1" height="1" fill="#000000" />
<rect x="32" y="34" width="1" height="1" fill="#000000" />
<rect x="33" y="34" width="1" height="1" fill="#000000" />
<rect x="34" y="34" width="1" height="1" fill="#000000" />
<rect x="35" y="34" width="1" height="1" fill="#000000" />
<rect x="36" y="34" width="1" height="1" fill="#000000" />
<rect x="37" y="34" width="1" height="1" fill="#000000" />
<rect x="38" y="34" width="1" height="1" fill="#000000" />
<rect x="39" y="34" width="1" height="1" fill="#000000" />
<rect x="40" y="34" width="1" height="1" fill="#000000" />
<rect x="4" y="35" width="1" height="1" fill="#000000" />
<rect x="5" y="35" width="1" height="1" fill="#000000" />
<rect x="6" y="35" width="1" height="1" fill="#000000" />
<rect x="7" y="35" width="1" height="1" fill="#000000" />
<rect x="8" y="35" width="1" height="1" fill="#000000" />
<rect x="9" y="35" width="1" height="1" fill="#000000" />
<rect x="10" y="35" width="1" height="1" fill="#000000" />
<rect x="11" y="35" width="1" height="1" fill="#000000" />
<rect x="12" y="35" width="1" height="1" fill="#000000" />
<rect x="13" y="35" width="1" height="1" fill="#000000" />
<rect x="14" y="35" width="1" height="1" fill="#000000" />
<rect x="15" y="35" width="1" height="1" fill="#000000" />
<rect x="16" y="35" width="1" height="1" fill="#000000" />
<rect x="17" y="35" width="1" height="1" fill="#000000" />
<rect x="18" y="35" width="1" height="1" fill="#000000" />
<rect x="19" y="35" width="1" height="1" fill="#000000" />
<rect x="20" y="35" width="1" height="1" fill="#000000" />
<rect x="21" y="35" width="1" height="1" fill="#000000" />
<rect x="22" y="35" width="1" height="1" fill="#000000" />
<rect x="23" y="35" width="1" height="1" fill="#000000" />
<rect x="24" y="35" width="1" height="1" fill="#000000" />
<rect x="25" y="35" width="1" height="1" fill="#000000" />
<rect x="26" y="35" width="1" height="1" fill="#000000" />
<rect x="27" y="35" width="1" height="1" fill="#000000" />
<rect x="28" y="35" width="1" height="1" fill="#000000" />
<rect x="29" y="35" width="1" height="1" fill="#000000" />
<rect x="30" y="35" width="1" height="1" fill="#000000" />
<rect x="31" y="35" width="1" height="1" fill="#000000" />
<rect x="32" y="35" width="1" height="1" fill="#000000" />
<rect x="33" y="35" width="1" height="1" fill="#000000" />
<rect x="34" y="35" width="1" height="1" fill="#000000" />
<rect x="35" y="35" width="1" height="1" fill="#000000" />
<rect x="36" y="35" width="1" height="1" fill="#000000" />
<rect x="37" y="35" width="1" height="1" fill="#000000" />
<rect x="38" y="35" width="1" height="1" fill="#000000" />
<rect x="39" y="35" width="1" height="1" fill="#000000" />
<rect x="40" y="35" width="1" height="1" fill="#000000" />
<rect x="4" y="36" width="1" height="1" fill="#000000" />
<rect x="5" y="36" width="1" height="1" fill="#000000" />
<rect x="6" y="36" width="1" height="1" fill="#000000" />
<rect x="7" y="36" width="1" height="1" fill="#000000" />
<rect x="8" y="36" width="1" height="1" fill="#000000" />
<rect x="9" y="36" width="1" height="1" fill="#000000" />
<rect x="10" y="36" width="1" height="1" fill="#000000" />
<rect x="11" y="36" width="1" height="1" fill="#000000" />
<rect x="12" y="36" width="1" height="1" fill="#000000" />
<rect x="13" y="36" width="1" height="1" fill="#000000" />
<rect x="14" y="36" width="1" height="1" fill="#000000" />
<rect x="15" y="36" width="1" height="1" fill="#000000" />
<rect x="16" y="36" width="1" height="1" fill="#000000" />
<rect x="17" y="36" width="1" height="1" fill="#000000" />
<rect x="18" y="36" width="1" height="1" fill="#000000" />
<rect x="19" y="36" width="1" height="1" fill="#000000" />
<rect x="20" y="36" width="1" height="1" fill="#000000" />
<rect x="21" y="36" width="1" height="1" fill="#000000" />
<rect x="22" y="36" width="1" height="1" fill="#000000" />
<rect x="23" y="36" width="1" height="1" fill="#000000" />
<rect x="24" y="36" width="1" height="1" fill="#000000" />
<rect x="25" y="36" width="1" height="1" fill="#000000" />
<rect x="26" y="36" width="1" height="1" fill="#000000" />
<rect x="27" y="36" width="1" height="1" fill="#000000" />
<rect x="28" y="36" width="1" height="1" fill="#000000" />
<rect x="29" y="36" width="1" height="1" fill="#000000" />
<rect x="30" y="36" width="1" height="1" fill="#000000" />
<rect x="31" y="36" width="1" height="1" fill="#000000" />
<rect x="32" y="36" width="1" height="1" fill="#000000" />
<rect x="33" y="36" width="1" height="1" fill="#000000" />
<rect x="34" y="36" width="1" height="1" fill="#000000" />
<rect x="35" y="36" width="1" height="1" fill="#000000" />
<rect x="36" y="36" width="1" height="1" fill="#000000" />
<rect x="37" y="36" width="1" height="1" fill="#000000" />
<rect x="38" y="36" width="1" height="1" fill="#000000" />
<rect x="39" y="36" width="1" height="1" fill="#000000" />
<rect x="40" y="36" width="1" height="1" fill="#000000" />
<rect x="4" y="37" width="1" height="1" fill="#000000" />
<rect x="5" y="37" width="1" height="1" fill="#000000" />
<rect x="6" y="37" width="1" height="1" fill="#000000" />
<rect x="7" y="37" width="1" height="1" fill="#000000" />
<rect x="8" y="37" width="1" height="1" fill="#000000" />
<rect x="9" y="37" width="1" height="1" fill="#000000" />
<rect x="10" y="37" width="1" height="1" fill="#000000" />
<rect x="11" y="37" width="1" height="1" fill="#000000" />
<rect x="12" y="37" width="1" height="1" fill="#000000" />
<rect x="13" y="37" width="1" height="1" fill="#000000" />
<rect x="14" y="37" width="1" height="1" fill="#000000" />
<rect x="15" y="37" width="1" height="1" fill="#000000" />
<rect x="16" y="37" width="1" height="1" fill="#000000" />
<rect x="17" y="37" width="1" height="1" fill="#000000" />
<rect x="18" y="37" width="1" height="1" fill="#000000" />
<rect x="19" y="37" width="1" height="1" fill="#000000" />
<rect x="20" y="37" width="1" height="1" fill="#000000" />
<rect x="21" y="37" width="1" height="1" fill="#000000" />
<rect x="22" y="37" width="1" height="1" fill="#000000" />
<rect x="23" y="37" width="1" height="1" fill="#000000" />
<rect x="24" y="37" width="1" height="1" fill="#000000" />
<rect x="25" y="37" width="1" height="1" fill="#000000" />
<rect x="26" y="37" width="1" height="1" fill="#000000" />
<rect x="27" y="37" width="1" height="1" fill="#000000" />
<rect x="28" y="37" width="1" height="1" fill="#000000" />
<rect x="29" y="37" width="1" height="1" fill="#000000" />
<rect x="30" y="37" width="1" height="1" fill="#000000" />
<rect x="31" y="37" width="1" height="1" fill="#000000" />
<rect x="32" y="37" width="1" height="1" fill="#000000" />
<rect x="33" y="37" width="1" height="1" fill="#000000" />
<rect x="34" y="37" width="1" height="1" fill="#000000" />
<rect x="35" y="37" width="1" height="1" fill="#000000" />
<rect x="36" y="37" width="1" height="1" fill="#000000" />
<rect x="37" y="37" width="1" height="1" fill="#000000" />
<rect x="38" y="37" width="1" height="1" fill="#000000" />
<rect x="39" y="37" width="1" height="1" fill="#000000" />
<rect x="40" y="37" width="1" height="1" fill="#000000" />
<rect x="4" y="38" width="1" height="1" fill="#000000" />
<rect x="5" y="38" width="1" height="1" fill="#000000" />
<rect x="6" y="38" width="1" height="1" fill="#000000" />
<rect x="7" y="38" width="1" height="1" fill="#000000" />
<rect x="8" y="38" width="1" height="1" fill="#000000" />
<rect x="9" y="38" width="1" height="1" fill="#000000" />
<rect x="10" y="38" width="1" height="1" fill="#000000" />
<rect x="11" y="38" width="1" height="1" fill="#000000" />
<rect x="12" y="38" width="1" height="1" fill="#000000" />
<rect x="13" y="38" width="1" height="1" fill="#000000" />
<rect x="14" y="38" width="1" height="1" fill="#000000" />
<rect x="15" y="38" width="1" height="1" fill="#000000" />
<rect x="16" y="38" width="1" height="1" fill="#000000" />
<rect x="17" y="38" width="1" height="1" fill="#000000" />
<rect x="18" y="38" width="1" height="1" fill="#000000" />
<rect x="19" y="38" width="1" height="1" fill="#000000" />
<rect x="20" y="38" width="1" height="1" fill="#000000" />
<rect x="21" y="38" width="1" height="1" fill="#000000" />
<rect x="22" y="38" width="1" height="1" fill="#000000" />
<rect x="23" y="38" width="1" height="1" fill="#000000" />
<rect x="24" y="38" width="1" height="1" fill="#000000" />
<rect x="25" y="38" width="1" height="1" fill="#000000" />
<rect x="26" y="38" width="1" height="1" fill="#000000" />
<rect x="27" y="38" width="1" height="1" fill="#000000" />
<rect x="28" y="38" width="1" height="1" fill="#000000" />
<rect x="29" y="38" width="1" height="1" fill="#000000" />
<rect x="30" y="38" width="1" height="1" fill="#000000" />
<rect x="31" y="38" width="1" height="1" fill="#000000" />
<rect x="32" y="38" width="1" height="1" fill="#000000" />
<rect x="33" y="38" width="1" height="1" fill="#000000" />
<rect x="34" y="38" width="1" height="1" fill="#000000" />
<rect x="35" y="38" width="1" height="1" fill="#000000" />
<rect x="36" y="38" width="1" height="1" fill="#000000" />
<rect x="37" y="38" width="1" height="1" fill="#000000" />
<rect x="38" y="38" width="1" height="1" fill="#000000" />
<rect x="39" y="38" width="1" height="1" fill="#000000" />
<rect x="40" y="38" width="1" height="1" fill="#000000" />
<rect x="4" y="39" width="1" height="1" fill="#000000" />
<rect x="5" y="39" width="1" height="1" fill="#000000" />
<rect x="6" y="39" width="1" height="1" fill="#000000" />
<rect x="7" y="39" width="1" height="1" fill="#000000" />
<rect x="8" y="39" width="1" height="1" fill="#000000" />
<rect x="9" y="39" width="1" height="1" fill="#000000" />
<rect x="10" y="39" width="1" height="1" fill="#000000" />
<rect x="11" y="39" width="1" height="1" fill="#000000" />
<rect x="12" y="39" width="1" height="1" fill="#000000" />
<rect x="13" y="39" width="1" height="1" fill="#000000" />
<rect x="14" y="39" width="1" height="1" fill="#000000" />
<rect x="15" y="39" width="1" height="1" fill="#000000" />
<rect x="16" y="39" width="1" height="1" fill="#000000" />
<rect x="17" y="39" width="1" height="1" fill="#000000" />
<rect x="18" y="39" width="1" height="1" fill="#000000" />
<rect x="19" y="39" width="1" height="1" fill="#000000" />
<rect x="20" y="39" width="1" height="1" fill="#000000" />
<rect x="21" y="39" width="1" height="1" fill="#000000" />
<rect x="22" y="39" width="1" height="1" fill="#000000" />
<rect x="23" y="39" width="1" height="1" fill="#000000" />
<rect x="24" y="39" width="1" height="1" fill="#000000" />
<rect x="25" y="39" width="1" height="1" fill="#000000" />
<rect x="26" y="39" width="1" height="1" fill="#000000" />
<rect x="27" y="39" width="1" height="1" fill="#000000" />
<rect x="28" y="39" width="1" height="1" fill="#000000" />
<rect x="29" y="39" width="1" height="1" fill="#000000" />
<rect x="30" y="39" width="1" height="1" fill="#000000" />
<rect x="31" y="39" width="1" height="1" fill="#000000" />
<rect x="32" y="39" width="1" height="1" fill="#000000" />
<rect x="33" y="39" width="1" height="1" fill="#000000" />
<rect x="34" y="39" width="1" height="1" fill="#000000" />
<rect x="35" y="39" width="1" height="1" fill="#000000" />
<rect x="36" y="39" width="1" height="1" fill="#000000" />
<rect x="37" y="39" width="1" height="1" fill="#000000" />
<rect x="38" y="39" width="1" height="1" fill="#000000" />
<rect x="39" y="39" width="1" height="1" fill="#000000" />
<rect x="40" y="39" width="1" height="1" fill="#000000" />
</svg>